#!OML:ASF F:\VICON\USERDATA\INSTALL\rory3\rory3.ASF
:FULLY-SPECIFIED
:DEGREES
121
root -3.78428 16.1662 41.3183 -163.344 -9.14296 -177.273
lowerback -3.1616 2.54209 4.9503
upperback -2.92015 3.07667 2.21409
thorax -1.09011 1.37881 -0.420276
lowerneck -14.437 -6.96382 -10.586
upperneck 31.931 -12.1921 6.36168
head 14.4366 -6.53372 2.10145
rclavicle 7.35503e-015 2.94201e-014
rhumerus -0.258834 -1.20898 -53.6452
rradius 32.1196
rwrist 8.52075
rhand -29.6301 -61.7326
rfingers 7.12502
rthumb -2.96023 -628.308
lclavicle 7.35503e-015 2.94201e-014
lhumerus -54.5572 13.8436 46.1021
lradius 26.0577
lwrist 8.34639
lhand -29.5492 -31.6157
lfingers 7.12502
lthumb -2.88207 -1.65541
rfemur -62.4458 -5.16572 27.6273
rtibia 67.4555
rfoot -10.6219 -17.4649
rtoes -10.8665
lfemur -28.1904 -6.4342 -21.6281
ltibia 43.7775
lfoot -31.9491 13.9904
ltoes 4.57459
122
root -3.80075 16.174 41.2403 -163.266 -9.87012 -177.455
lowerback -3.01947 2.27541 5.01927
upperback -3.1367 2.72586 2.32409
thorax -1.4103 1.18764 -0.364862
lowerneck -13.4293 -6.79859 -10.8345
upperneck 31.7529 -12.113 6.51095
head 14.1543 -6.57205 2.25662
rclavicle 2.64384e-014 2.3059e-014
rhumerus -0.0932929 -0.191781 -52.8937
rradius 32.329
rwrist 7.58178
rhand -29.7905 -60.0335
rfingers 7.12502
rthumb -3.1151 -449.99
lclavicle 2.64384e-014 2.3059e-014
lhumerus -55.3543 13.8012 44.4672
lradius 25.768
lwrist 7.99156
lhand -29.7102 -31.3193
lfingers 7.12502
lthumb -3.03756 -1.36114
rfemur -62.9048 -5.90335 27.7814
rtibia 66.3634
rfoot -10.3255 -16.9883
rtoes -11.9007
lfemur -27.8128 -6.65503 -21.6996
ltibia 43.407
lfoot -31.9734 13.8039
ltoes 4.24135
123
root -3.80866 16.1818 41.1665 -163.229 -10.4499 -177.57
lowerback -2.29461 2.34223 5.3818
upperback -3.74778 2.87743 1.9602
thorax -2.40758 1.21511 -0.975978
lowerneck -11.859 -6.75794 -10.5121
upperneck 31.6515 -12.6311 6.8596
head 13.8244 -6.82719 2.30791
rclavicle -4.87022e-015 4.13472e-014
rhumerus -1.12276 -0.249031 -52.4709
rradius 32.5154
rwrist 7.55301
rhand -21.4566 -70.1108
rfingers 7.12502
rthumb 4.93346 -619.967
lclavicle -4.87022e-015 4.13472e-014
lhumerus -55.5502 12.0558 43.1163
lradius 25.6651
lwrist 8.22139
lhand -29.525 -31.6872
lfingers 7.12502
lthumb -2.85873 -1.72663
rfemur -63.3258 -6.42075 27.9452
rtibia 65.1796
rfoot -9.83135 -16.5769
rtoes -12.8844
lfemur -27.4292 -6.77399 -21.7104
ltibia 43.0775
lfoot -31.9723 13.6856
ltoes 3.74081
124
root -3.81458 16.181 41.0983 -163.186 -10.6275 -177.572
lowerback -2.3063 2.71401 5.27234
upperback -3.91399 3.36956 1.92677
thorax -2.54992 1.45237 -0.948007
lowerneck -10.1617 -6.99297 -10.4935
upperneck 31.0344 -13.3123 7.20513
head 13.2961 -7.16211 2.39953
rclavicle 1.87852e-014 2.70347e-014
rhumerus -1.71747 -0.759973 -51.3685
rradius 32.6343
rwrist 7.52441
rhand -31.5924 -57.6482
rfingers 7.12502
rthumb -4.85514 -447.573
lclavicle 1.87852e-014 2.70347e-014
lhumerus -55.0734 10.7365 42.513
lradius 25.51
lwrist 8.36399
lhand -29.3057 -31.631
lfingers 7.12502
lthumb -2.6469 -1.66771
rfemur -63.7704 -6.59592 28.0979
rtibia 63.9702
rfoot -9.2671 -15.9591
rtoes -12.9305
lfemur -27.0685 -6.67174 -21.7255
ltibia 42.794
lfoot -31.9005 13.9292
ltoes 3.01567
125
root -3.82531 16.1706 41.0327 -162.997 -10.4718 -177.542
lowerback -2.19256 2.70506 5.09299
upperback -3.91104 3.36079 2.17176
thorax -2.63515 1.44997 -0.602421
lowerneck -9.86781 -6.90211 -10.6291
upperneck 30.8814 -13.1507 7.17622
head 13.1573 -7.12165 2.45337
rclavicle -4.27387e-014 -2.22639e-014
rhumerus -0.918648 -0.288312 -50.6598
rradius 32.7538
rwrist 7.6741
rhand -30.8236 -60.0443
rfingers 7.12502
rthumb -4.11282 -449.984
lclavicle -4.27387e-014 -2.22639e-014
lhumerus -55.4639 10.6882 41.4347
lradius 25.4667
lwrist 8.56353
lhand -29.3001 -30.9522
lfingers 7.12502
lthumb -2.64151 -0.988857
rfemur -64.3643 -6.50367 28.1779
rtibia 62.7558
rfoot -9.45926 -15.067
rtoes -10.4058
lfemur -26.8794 -6.55622 -21.7966
ltibia 42.5632
lfoot -31.8373 14.3292
ltoes 2.3216
126
root -3.83422 16.1633 40.9611 -162.786 -10.4942 -177.629
lowerback -2.68306 2.39191 4.65351
upperback -2.8654 2.90053 2.75291
thorax -1.35054 1.28958 0.273469
lowerneck -12.3273 -7.07639 -10.972
upperneck 31.0016 -12.6198 6.77914
head 13.6751 -6.79254 2.34722
rclavicle -1.15295e-014 -1.90833e-014
rhumerus 2.18828 -0.327341 -49.8357
rradius 32.5248
rwrist 7.97851
rhand -30.1171 -61.4613
rfingers 7.12502
rthumb -3.43055 -628.587
lclavicle -1.15295e-014 -1.90833e-014
lhumerus -55.248 13.074 40.2483
lradius 25.0849
lwrist 8.14637
lhand -29.4715 -31.4076
lfingers 7.12502
lthumb -2.80709 -1.44637
rfemur -64.8998 -6.52786 28.1581
rtibia 61.5088
rfoot -8.47274 -14.3772
rtoes -11.1179
lfemur -26.6738 -6.54861 -21.9044
ltibia 42.3046
lfoot -31.9351 14.2839
ltoes 2.40432
127
root -3.83876 16.1621 40.8833 -162.649 -10.7477 -177.801
lowerback -2.06093 2.48188 4.63177
upperback -3.27278 3.07837 2.58959
thorax -2.10696 1.35696 0.0864321
lowerneck -11.573 -7.07793 -10.652
upperneck 31.0797 -12.9188 6.77104
head 13.552 -6.94616 2.26765
rclavicle 2.14687e-014 -8.74653e-015
rhumerus 1.71051 -0.251825 -49.3213
rradius 32.6671
rwrist 7.94648
rhand -30.5443 -62.107
rfingers 7.12502
rthumb -3.8431 -627.948
lclavicle 2.14687e-014 -8.74653e-015
lhumerus -55.108 12.0068 39.0037
lradius 24.9541
lwrist 8.28036
lhand -29.3401 -30.6256
lfingers 7.12502
lthumb -2.68021 -0.662695
rfemur -65.2915 -6.72168 28.072
rtibia 60.2387
rfoot -7.15317 -13.889
rtoes -12.8447
lfemur -26.3421 -6.55371 -22.0212
ltibia 41.9839
lfoot -32.117 13.9141
ltoes 2.98809
128
root -3.84335 16.1689 40.8006 -162.575 -11.0465 -177.894
lowerback -1.64709 2.53966 4.74659
upperback -3.70695 3.18864 2.45688
thorax -2.77213 1.38316 -0.139001
lowerneck -10.092 -7.01426 -10.5457
upperneck 30.9369 -13.2399 6.96678
head 13.215 -7.15356 2.33476
rclavicle 1.13307e-014 -1.51076e-014
rhumerus 1.08969 0.0173953 -48.883
rradius 32.8294
rwrist 7.9607
rhand -30.952 -59.2244
rfingers 7.12502
rthumb -4.23678 -449.162
lclavicle 1.13307e-014 -1.51076e-014
lhumerus -55.1481 10.7697 37.7061
lradius 24.8644
lwrist 8.48056
lhand -28.3955 -32.3115
lfingers 7.12502
lthumb -1.76785 -2.33909
rfemur -65.5756 -6.98857 28.0606
rtibia 58.9701
rfoot -6.32625 -13.327
rtoes -12.9414
lfemur -25.8942 -6.55704 -22.0557
ltibia 41.606
lfoot -32.2917 13.7538
ltoes 2.77915
129
root -3.8476 16.1757 40.7158 -162.462 -11.4634 -177.95
lowerback -1.16539 2.15997 4.80392
upperback -3.01341 2.72213 2.71769
thorax -2.35234 1.18392 0.0909643
lowerneck -12.9508 -7.35996 -10.68
upperneck 31.4946 -13.1649 6.73112
head 14.0625 -6.98245 2.14765
rclavicle 3.65764e-014 -4.92986e-014
rhumerus 3.7157 -0.848145 -48.6937
rradius 32.7212
rwrist 10.111
rhand -28.3122 -60.6139
rfingers 7.12502
rthumb -1.68748 -269.413
lclavicle 3.65764e-014 -4.92986e-014
lhumerus -54.7452 12.4391 36.3375
lradius 24.6819
lwrist 8.19843
lhand -26.7975 -35.4882
lfingers 7.12502
lthumb -0.22446 -5.5086
rfemur -65.911 -7.35143 28.1093
rtibia 57.7578
rfoot -5.70392 -12.7067
rtoes -12.4128
lfemur -25.4817 -6.60025 -22.0056
ltibia 41.2039
lfoot -32.4401 13.6607
ltoes 2.13232
130
root -3.85244 16.1674 40.6295 -162.292 -11.9349 -178.11
lowerback -1.26259 2.34879 4.94496
upperback -3.41922 2.97317 2.44612
thorax -2.68844 1.28639 -0.270259
lowerneck -10.5133 -7.38902 -10.4509
upperneck 30.6101 -13.7289 7.23148
head 13.2394 -7.27102 2.32392
rclavicle 1.37161e-014 5.56597e-015
rhumerus 2.71919 -0.971148 -48.2568
rradius 32.607
rwrist 9.70896
rhand -21.8928 -71.514
rfingers 7.12502
rthumb 4.51232 -258.554
lclavicle 1.37161e-014 5.56597e-015
lhumerus -54.0647 10.8636 35.2518
lradius 24.4654
lwrist 7.95538
lhand -29.8142 -28.0149
lfingers 7.12502
lthumb -3.13802 1.94176
rfemur -66.316 -7.66217 27.9745
rtibia 56.6137
rfoot -4.8788 -12.2368
rtoes -12.7178
lfemur -25.1492 -6.72596 -22.0349
ltibia 40.8304
lfoot -32.5609 13.4145
ltoes 1.94429
131
root -3.85655 16.1575 40.5399 -162.14 -12.4371 -178.327
lowerback -0.685041 2.2169 4.92839
upperback -3.66953 2.84753 2.4318
thorax -3.27903 1.2069 -0.301149
lowerneck -10.3189 -7.39408 -10.4125
upperneck 30.7181 -13.851 7.26219
head 13.257 -7.3381 2.31506
rclavicle -3.47873e-014 -3.18055e-014
rhumerus 2.71446 -0.466947 -47.8006
rradius 32.5006
rwrist 9.01616
rhand -21.6376 -72.5707
rfingers 7.12502
rthumb 4.75875 -257.503
lclavicle -3.47873e-014 -3.18055e-014
lhumerus -53.7859 10.46 33.9158
lradius 24.171
lwrist 7.48109
lhand -28.918 -30.2407
lfingers 7.12502
lthumb -2.27256 -0.27303
rfemur -66.6195 -7.79402 27.6052
rtibia 55.5023
rfoot -4.16771 -12.1355
rtoes -13.2101
lfemur -24.7805 -6.92105 -22.0938
ltibia 40.4617
lfoot -32.8523 13.0714
ltoes 2.26441
132
root -3.85656 16.1536 40.4507 -161.937 -12.9071 -178.535
lowerback -1.37014 2.26791 4.47565
upperback -3.49788 2.8553 2.63487
thorax -2.74495 1.23724 0.187128
lowerneck -9.17138 -7.51417 -10.5008
upperneck 30.0982 -14.1086 7.39882
head 12.8028 -7.48901 2.40168
rclavicle -8.94531e-015 -1.82882e-014
rhumerus 2.92943 -0.621817 -46.9217
rradius 32.3869
rwrist 9.19177
rhand -24.1078 -69.5938
rfingers 7.12502
rthumb 2.37321 -260.44
lclavicle -8.94531e-015 -1.82882e-014
lhumerus -52.9872 10.2438 33.1395
lradius 23.8633
lwrist 7.10488
lhand -28.6836 -30.9989
lfingers 7.12502
lthumb -2.04617 -1.02894
rfemur -66.925 -7.80272 27.1775
rtibia 54.4161
rfoot -3.65278 -12.3079
rtoes -13.3972
lfemur -24.4775 -7.14028 -22.1075
ltibia 40.0951
lfoot -32.872 12.6349
ltoes 2.25263
133
root -3.85664 16.1507 40.3603 -161.628 -13.2835 -178.799
lowerback -1.28746 1.75209 4.17611
upperback -2.44473 2.16589 3.06911
thorax -1.75052 0.947742 0.813179
lowerneck -13.0363 -7.85905 -10.8099
upperneck 30.8028 -13.7432 6.9957
head 13.8817 -7.15464 2.17411
rclavicle 2.3059e-014 1.74931e-014
rhumerus 6.60945 -1.1431 -46.7667
rradius 31.701
rwrist 10.0344
rhand -29.039 -64.9679
rfingers 7.12502
rthumb -2.38933 -265.066
lclavicle 2.3059e-014 1.74931e-014
lhumerus -52.5338 13.1521 31.5967
lradius 23.4935
lwrist 6.36141
lhand -28.3708 -31.5909
lfingers 7.12502
lthumb -1.74403 -1.61828
rfemur -67.3305 -7.91367 26.792
rtibia 53.3223
rfoot -3.14806 -12.3145
rtoes -13.5448
lfemur -24.3132 -7.23811 -22.2103
ltibia 39.8655
lfoot -33.0565 12.3722
ltoes 1.82761
